<svg xmlns="http://www.w3.org/2000/svg" viewBox="0 0 256 256"><path d="M109,255c62,0,69.688-47.609,87.913-67.752c19.309-21.342,43.087-22.139,43.087-35.248c0-7.096-9.806-16-23-16c-22,0-31.696,20.964-47,20.964c-8,0-12-11.413-12-27.964c0-22.207,3-60.828,3-84c0-16-5-23-14-23c-10,0-12.353,8.462-13,21.108c-1.292,25.246-1.974,35.821-2.945,58.094c-0.457,10.485-2.15,14.798-4.055,14.798c-2.015,0-3.761-2.443-3.97-9.151c-1.107-35.473-1.641-52.067-2.343-85.126c-0.267-12.57-4.08-20.723-13.687-20.723c-10.273,0-14,9-14,21c0,26,3,65,3,92c0,7-2,12-4,12c-1.5,0-3.866-2.838-4.362-9.576c-1.141-15.499-3.389-51.165-4.659-73.919c-0.574-9.277-4.979-17.505-14.979-18.505c-9,1-14,8-14,19c0,18.501,8,78.858,8,92c0,4.765-1.426,7-3,7c-1.826,0-2.657-2.676-3.76-6.702c-4.139-15.104-8.145-33.505-10.612-45.698c-1.91-9.438-6.068-14.6-13.628-14.6c-7.4,0-11,6.737-11,16c0,17.31,10.918,49.793,14.589,75.097c4.011,27.64,10.163,53.793,15.411,61.903c11.182,17.281,24,27,59,27Z"></path></svg>