<svg xmlns="http://www.w3.org/2000/svg" viewBox="0 0 256 256">
  <rect x="0" y="0" width="256" height="256" fill="#50AE32"></rect>
  <path d="M0,256h256v-52l-34-22l-11-54l15-39l7-45l-8-9l-54,26h-85l-24-32l-18-10l-9,16v69l2,10v68l-37,18Z" fill="#C4C2BC"></path>
  <path d="M214,256h42v-58c-10-8-28-18-28-24c0-26-13-28-13-44c0-8,10-25,15-42c2-10,6-32,6-43c0-9-4-12-10-12c-10,0-33,11-47,19c-6,4-10,6-13,6c-14,0-28,2-46,2c-5,0-9-2-23-2c-7,0-12-4-17-10c-14-20-27-33-37-33s-12,29-12,56c0,21,1,41,1,47c0,7,4,8,4,14c0,13-4,15-4,32c0,4,1,8,1,11c0,4-23,10-33,16v35c20-4,56,0,56-13c0-6-17-27-17-48c0-36,15-45,17-54c3-10,9-17,15-24c5-7,7-19,18-19c5,0,9,9,9,13c0,7-5,15-5,22s2,12,6,12s7-5,7-14c0-4-1-9-1-13c0-9,1-20,8-20c4,0,6,2,6,5c0,9-10,18-10,33c0,9,3,13,9,13c4,0,6-5,6-13s-1-10-1-17c0-8,6-17,13-17c10,0,11,14,17,24c7,10,13,6,13,24c0,16,40,18,40,46c0,32-53,47-53,61c0,5,4,8,11,8c6,0,27-6,42-6c9,0,14,6,14,12c0,7-1,10-6,15ZM98,192c12,0,28-4,28-11c0-1-1-2-3-2c-6,0-14,5-25,5c-9,0-16-6-20-6c-2,0-3,1-3,2c0,6,15,12,23,12ZM97,170c5,0,24-11,24-24c0-15-13-17-28-17c-10,0-17,8-17,15c0,15,15,26,21,26ZM61,118c2,0,9-7,18-9c5-1,9-3,9-5s-3-3-6-3c-11,0-22,10-22,15c0,1,0,2,1,2ZM42,113c-4,0-5-18-5-48c0-15,1-42,8-42c9,0,31,28,31,34c0,3-10,18-12,18c-4,0-7-21-17-21c-2,0-3,3-3,7c0,13,6,27,6,34c0,6-5,18-8,18ZM158,123c1,0,1-1,1-2c0-6-12-18-24-18c-3,0-6,1-6,3s4,3,9,5c11,4,18,12,20,12ZM207,114c-3,0-5-3-5-9c0-9,9-24,9-34c0-5-1-9-4-9c-9,0-11,21-18,21c-3,0-13-12-13-17c0-8,40-26,47-26c5,0,6,2,6,7c0,9-3,27-6,39c-4,13-12,28-16,28Z" fill="#080808"></path>
  <path d="M112,217c5,0,3-26,6-26c2,0,1,14,4,14c2,0,4-8,4-24c-5,2-19,7-19,10c0,20,3,26,5,26Z" fill="#4AA0E8"></path>
</svg>