<svg xmlns="http://www.w3.org/2000/svg" viewBox="0 0 256 256">
  <rect x="0" y="0" width="256" height="256" fill="#50AE32"></rect>
  <path d="M0,256h256v-52l-34-22l-11-54l15-39l7-45l-8-9l-54,26h-85l-24-32l-18-10l-9,16v69l2,10v68l-37,18Z" fill="#C4C2BC"></path>
  <path d="M214,256h42v-58c-10-8-28-18-28-24c0-26-13-28-13-44c0-8,10-25,15-42c2-10,6-32,6-43c0-9-4-12-10-12c-10,0-33,11-47,19c-6,4-10,6-13,6c-14,0-28,2-46,2c-5,0-9-2-23-2c-7,0-12-4-17-10c-14-20-27-33-37-33s-12,29-12,56c0,21,1,41,1,47c0,7,4,8,4,14c0,13-4,15-4,32c0,4,1,8,1,11c0,4-23,10-33,16v35c20-4,56,0,56-13c0-6-17-27-17-48c0-28,9-40,14-48c4,9,9,12,24,12c18,0,17-16,27-15c10,0,4,20,31,20c15,0,22-3,28-13h3c0,15,40,17,40,45c0,32-53,47-53,61c0,5,4,8,11,8c6,0,27-6,42-6c9,0,14,6,14,12c0,7-1,10-6,15ZM101,196c16,0,23-10,23-16c0-1,0-2-1-2c-3,0-4,12-22,12s-19-12-22-12c-1,0-1,1-1,2c0,6,8,16,23,16ZM97,170c5,0,24-11,24-24c0-15-13-17-28-17c-10,0-17,8-17,15c0,15,15,26,21,26ZM42,113c-4,0-5-18-5-48c0-15,1-42,8-42c9,0,31,28,31,34c0,3-10,18-12,18c-4,0-7-21-17-21c-2,0-3,3-3,7c0,13,6,27,6,34c0,6-5,18-8,18ZM94,98c-6-2-13-4-24-4c-2,0-3,0-6,1c3-3,5-6,7-8c5-7,7-19,18-19c5,0,9,9,9,13c0,6-3,12-4,17ZM109,102h-3c0-4-1-10-1-14c0-9,1-20,8-20c4,0,6,2,6,5c0,8-8,15-10,29ZM160,103c-7-3-17-5-27-5c-4,0-5,0-9,1c-1-4-1-6-1-10c0-8,6-17,13-17c10,0,11,14,17,24c2,3,6,6,7,7ZM207,114c-3,0-5-3-5-9c0-9,9-24,9-34c0-5-1-9-4-9c-9,0-11,21-18,21c-3,0-13-12-13-17c0-8,40-26,47-26c5,0,6,2,6,7c0,9-3,27-6,39c-4,13-12,28-16,28Z" fill="#080808"></path>
</svg>