<svg xmlns="http://www.w3.org/2000/svg" viewBox="0 0 256 256">
  <defs>
    <linearGradient id="verticalGradient" x1="0%" y1="0%" x2="0%" y2="100%">
      <stop offset="0%" stop-color="#11A4FF" />
      <stop offset="100%" stop-color="#97C7D6" />
    </linearGradient>
  </defs>
  <rect x="0" y="0" width="256" height="256" fill="#50AE32"></rect>
  <path d="M0,256h256v-52l-34-22l-11-54l15-39l7-45l-8-9l-54,26h-85l-24-32l-18-10l-9,16v69l2,10v68l-37,18Z" fill="url(#verticalGradient)"></path>
  <path d="M82,204h44l9-3l4-10l-4-10l-9-3h-44l-9,3l-4,10l4,10Z" fill="#F0F0F0"></path>
  <path d="M214,256h42v-58c-10-8-28-18-28-24c0-26-13-28-13-44c0-8,10-25,15-42c2-10,6-32,6-43c0-9-4-12-10-12c-10,0-33,11-47,19c-6,4-10,6-13,6c-14,0-28,2-46,2c-5,0-9-2-23-2c-7,0-12-4-17-10c-14-20-27-33-37-33s-12,29-12,56l1,47c0,7,4,8,4,14c0,13-4,15-4,32c0,4,1,8,1,11c0,4-23,10-33,16v35c20-4,56,0,56-13c0-6-17-27-17-48c0-36,15-45,17-54c3-10,9-17,15-24c5-7,7-19,18-19c5,0,9,9,9,13c0,7-5,15-5,22s2,12,6,12s7-5,7-14l-1-13c0-9,1-20,8-20c4,0,6,2,6,5c0,9-10,18-10,33c0,9,3,13,9,13c4,0,6-5,6-13s-1-10-1-17c0-8,6-17,13-17c10,0,11,14,17,24c7,10,13,6,13,24c0,16,40,18,40,46c0,32-53,47-53,61c0,5,4,8,11,8c6,0,27-6,42-6c9,0,14,6,14,12c0,7-2,11-6,15ZM82,205h44c8,0,14-5,14-14s-6-14-14-14h-44c-8,0-14,5-14,14s6,14,14,14ZM81,201c-5,0-9-3-9-9h9ZM72,190c0-6,4-9,9-9v9ZM83,201v-9h9v9ZM83,190v-9h9v9ZM94,201v-9h9v9ZM94,190v-9h9v9ZM105,201v-9h9v9ZM105,190v-9h9v9ZM116,201v-9h9v9ZM116,190v-9h9v9ZM127,201v-9h9c0,6-4,9-9,9ZM136,190h-9v-9c5,0,9,3,9,9ZM97,170c5,0,24-11,24-24c0-15-13-17-28-17c-10,0-17,8-17,15c0,15,15,26,21,26ZM78,118c5,0,8-4,8-9c0-6-4-9-8-9c-5,0-8,4-8,9c0,6,4,9,8,9ZM42,113c-4,0-5-18-5-48c0-15,1-42,8-42c9,0,31,28,31,34c0,3-10,18-12,18c-4,0-7-21-17-21c-2,0-3,3-3,7c0,13,6,27,6,34c0,6-5,18-8,18ZM139,124c5,0,8-4,8-9c0-6-4-9-8-9c-5,0-8,4-8,9c0,6,4,9,8,9ZM207,114c-3,0-5-3-5-9c0-9,9-24,9-34c0-5-1-9-4-9c-9,0-11,21-18,21c-3,0-13-12-13-17c0-8,40-26,47-26c5,0,6,2,6,7c0,9-3,27-6,39c-4,13-12,28-16,28Z" fill="#080808"></path>
  <path d="M105,179c4,0,7-3,7-8c0-7-4-19-7-19s-7,12-7,19c0,5,3,8,7,8Z" fill="#F0F0F0"></path>
</svg>